# xmcd CD database file
#
# Track frame offsets:
#	150
#	10430
#	21305
#	34055
#	44105
#	58205
#	73130
#	82130
#	93155
#	106655
#	117980
#	129530
#
# Disc length: 1909 seconds
#
# Revision: 2
# Processed by: cddbd v1.5.2PL0 Copyright (c) Steve Scherf et al.
# Submitted via: jetAudio 7
#
DISCID=aa07730c
DTITLE=Floyd Cramer - Favorite Country Hits Vol.2
DYEAR=1997
DGENRE=Country
TTITLE0=Help Me Make It Through The Night
TTITLE1=He Stopped Loving Her Today
TTITLE2=On The Wings Of A Dove
TTITLE3=Blue Eyes Crying In The Rain
TTITLE4=Almost Persuaded
TTITLE5=Faded Love
TTITLE6=San Antonio Rose
TTITLE7=Hello, Darlin'
TTITLE8=Another Somebody Done Somebody Wrong Song
TTITLE9=The Three Bells
TTITLE10=There Goes My Everything
TTITLE11=My Secret Angel
EXTD=YEAR: 1997
EXTT0=
EXTT1=
EXTT2=
EXTT3=
EXTT4=
EXTT5=
EXTT6=
EXTT7=
EXTT8=
EXTT9=
EXTT10=
EXTT11=
PLAYORDER=
